<svg width="full" height="full" viewBox="0 0 548 680" fill="none" xmlns="http://www.w3.org/2000/svg">
<g filter="url(#filter0_d_1471_42)">
<path d="M24 60C24 48.9543 32.9543 40 44 40H504C515.046 40 524 48.9543 524 60V620C524 631.046 515.046 640 504 640H44C32.9543 640 24 631.046 24 620V60Z" fill="#5B5AD1"/>
</g>
<circle cx="49" cy="25" r="25" fill="white"/>
<circle cx="94" cy="25" r="25" fill="white"/>
<circle cx="139" cy="25" r="25" fill="white"/>
<circle cx="184" cy="25" r="25" fill="white"/>
<circle cx="229" cy="25" r="25" fill="white"/>
<circle cx="274" cy="25" r="25" fill="white"/>
<circle cx="319" cy="25" r="25" fill="white"/>
<circle cx="364" cy="25" r="25" fill="white"/>
<circle cx="409" cy="25" r="25" fill="white"/>
<circle cx="454" cy="25" r="25" fill="white"/>
<circle cx="499" cy="25" r="25" fill="white"/>
<circle cx="49" cy="654" r="25" fill="white"/>
<circle cx="94" cy="654" r="25" fill="white"/>
<circle cx="139" cy="654" r="25" fill="white"/>
<circle cx="184" cy="654" r="25" fill="white"/>
<circle cx="229" cy="654" r="25" fill="white"/>
<circle cx="274" cy="654" r="25" fill="white"/>
<circle cx="319" cy="654" r="25" fill="white"/>
<circle cx="364" cy="654" r="25" fill="white"/>
<circle cx="409" cy="654" r="25" fill="white"/>
<circle cx="454" cy="654" r="25" fill="white"/>
<circle cx="499" cy="654" r="25" fill="white"/>
<defs>
<filter id="filter0_d_1471_42" x="0" y="16" width="full" height="full" filterUnits="userSpaceOnUse" color-interpolation-filters="sRGB">
<feFlood flood-opacity="0" result="BackgroundImageFix"/>
<feColorMatrix in="SourceAlpha" type="matrix" values="0 0 0 0 0 0 0 0 0 0 0 0 0 0 0 0 0 0 127 0" result="hardAlpha"/>
<feMorphology radius="4" operator="dilate" in="SourceAlpha" result="effect1_dropShadow_1471_42"/>
<feOffset/>
<feGaussianBlur stdDeviation="10"/>
<feComposite in2="hardAlpha" operator="out"/>
<feColorMatrix type="matrix" values="0 0 0 0 0.133333 0 0 0 0 0.133333 0 0 0 0 0.133333 0 0 0 0.03 0"/>
<feBlend mode="normal" in2="BackgroundImageFix" result="effect1_dropShadow_1471_42"/>
<feBlend mode="normal" in="SourceGraphic" in2="effect1_dropShadow_1471_42" result="shape"/>
</filter>
</defs>
</svg>
